<svg width="227" height="141" viewBox="0 0 227 141" fill="none" xmlns="http://www.w3.org/2000/svg">
<g filter="url(#filter0_d_39_304)">
<path fill-rule="evenodd" clip-rule="evenodd" d="M142.347 -84.6483C164.968 -86.4813 190.346 -99.3401 208.749 -86.0478C227.151 -72.7569 224.007 -44.8287 228.345 -22.5339C232.087 -3.30299 236.532 15.5563 232.24 34.672C227.609 55.303 219.363 75.6646 203.236 89.3226C186.395 103.585 164.345 112.457 142.347 110.802C121.102 109.204 105.718 92.1162 87.7656 80.6337C68.3319 68.204 41.7459 62.3708 33.1402 40.9536C24.4467 19.3177 35.601 -4.86507 44.8029 -26.2893C53.2726 -46.0091 64.9156 -64.8713 83.3225 -75.8838C100.824 -86.3545 122.025 -83.0014 142.347 -84.6483Z" fill="#F27200"/>
</g>
<defs>
<filter id="filter0_d_39_304" x="0" y="-122" width="264" height="263" filterUnits="userSpaceOnUse" color-interpolation-filters="sRGB">
<feFlood flood-opacity="0" result="BackgroundImageFix"/>
<feColorMatrix in="SourceAlpha" type="matrix" values="0 0 0 0 0 0 0 0 0 0 0 0 0 0 0 0 0 0 127 0" result="hardAlpha"/>
<feOffset/>
<feGaussianBlur stdDeviation="15"/>
<feComposite in2="hardAlpha" operator="out"/>
<feColorMatrix type="matrix" values="0 0 0 0 0.94902 0 0 0 0 0.447059 0 0 0 0 0 0 0 0 0.5 0"/>
<feBlend mode="normal" in2="BackgroundImageFix" result="effect1_dropShadow_39_304"/>
<feBlend mode="normal" in="SourceGraphic" in2="effect1_dropShadow_39_304" result="shape"/>
</filter>
</defs>
</svg>
