<svg width="130" height="130" viewBox="0 0 130 130" fill="none" xmlns="http://www.w3.org/2000/svg">
<g filter="url(#filter0_d_39_256)">
<path d="M65.0001 70.4167V48.75M113.75 32.5L102.917 21.6667M54.1667 10.8333H75.8334M65.0001 113.75C53.5074 113.75 42.4854 109.185 34.3588 101.058C26.2322 92.9314 21.6667 81.9094 21.6667 70.4167C21.6667 58.924 26.2322 47.902 34.3588 39.7754C42.4854 31.6488 53.5074 27.0833 65.0001 27.0833C76.4928 27.0833 87.5148 31.6488 95.6414 39.7754C103.768 47.902 108.333 58.924 108.333 70.4167C108.333 81.9094 103.768 92.9314 95.6414 101.058C87.5148 109.185 76.4928 113.75 65.0001 113.75Z" stroke="#F27200" stroke-width="2" stroke-linecap="round" stroke-linejoin="round" shape-rendering="crispEdges"/>
</g>
<defs>
<filter id="filter0_d_39_256" x="16.6667" y="9.83334" width="102.083" height="112.917" filterUnits="userSpaceOnUse" color-interpolation-filters="sRGB">
<feFlood flood-opacity="0" result="BackgroundImageFix"/>
<feColorMatrix in="SourceAlpha" type="matrix" values="0 0 0 0 0 0 0 0 0 0 0 0 0 0 0 0 0 0 127 0" result="hardAlpha"/>
<feOffset dy="4"/>
<feGaussianBlur stdDeviation="2"/>
<feComposite in2="hardAlpha" operator="out"/>
<feColorMatrix type="matrix" values="0 0 0 0 0 0 0 0 0 0 0 0 0 0 0 0 0 0 0.25 0"/>
<feBlend mode="normal" in2="BackgroundImageFix" result="effect1_dropShadow_39_256"/>
<feBlend mode="normal" in="SourceGraphic" in2="effect1_dropShadow_39_256" result="shape"/>
</filter>
</defs>
</svg>
