<svg width="159" height="171" viewBox="0 0 159 171" fill="none" xmlns="http://www.w3.org/2000/svg">
<g filter="url(#filter0_d_39_304)">
<path fill-rule="evenodd" clip-rule="evenodd" d="M130.231 -33.445C150.412 -35.0794 173.054 -46.5447 189.472 -34.6928C205.889 -22.8424 203.084 2.05917 206.955 21.9377C210.294 39.0845 214.259 55.8999 210.43 72.944C206.298 91.3391 198.941 109.494 184.553 121.672C169.529 134.388 149.857 142.3 130.231 140.824C111.278 139.398 97.5526 124.163 81.536 113.925C64.1981 102.842 40.4792 97.641 32.8015 78.5448C25.0456 59.2537 34.997 37.6917 43.2065 18.5894C50.7629 1.00667 61.1502 -15.8113 77.5721 -25.6304C93.186 -34.9663 112.1 -31.9766 130.231 -33.445Z" fill="#F27200"/>
</g>
<defs>
<filter id="filter0_d_39_304" x="0" y="-70" width="242" height="241" filterUnits="userSpaceOnUse" color-interpolation-filters="sRGB">
<feFlood flood-opacity="0" result="BackgroundImageFix"/>
<feColorMatrix in="SourceAlpha" type="matrix" values="0 0 0 0 0 0 0 0 0 0 0 0 0 0 0 0 0 0 127 0" result="hardAlpha"/>
<feOffset/>
<feGaussianBlur stdDeviation="15"/>
<feComposite in2="hardAlpha" operator="out"/>
<feColorMatrix type="matrix" values="0 0 0 0 0.94902 0 0 0 0 0.447059 0 0 0 0 0 0 0 0 0.5 0"/>
<feBlend mode="normal" in2="BackgroundImageFix" result="effect1_dropShadow_39_304"/>
<feBlend mode="normal" in="SourceGraphic" in2="effect1_dropShadow_39_304" result="shape"/>
</filter>
</defs>
</svg>
